<?xml version="1.0" standalone="no"?><!DOCTYPE svg PUBLIC "-//W3C//DTD SVG 1.1//EN"
        "http://www.w3.org/Graphics/SVG/1.1/DTD/svg11.dtd">
<svg t="1584598882620" class="icon" viewBox="0 0 1024 1024" version="1.1" xmlns="http://www.w3.org/2000/svg" p-id="3014"
     width="200" height="200" xmlns:xlink="http://www.w3.org/1999/xlink">
    <defs>
        <style type="text/css"></style>
    </defs>
    <path d="M960 109.714286H64c-5.028571 0-9.142857 4.114286-9.142857 9.142857v73.142857c0 5.028571 4.114286 9.142857 9.142857 9.142857h896c5.028571 0 9.142857-4.114286 9.142857-9.142857v-73.142857c0-5.028571-4.114286-9.142857-9.142857-9.142857z m0 713.142857H64c-5.028571 0-9.142857 4.114286-9.142857 9.142857v73.142857c0 5.028571 4.114286 9.142857 9.142857 9.142857h896c5.028571 0 9.142857-4.114286 9.142857-9.142857v-73.142857c0-5.028571-4.114286-9.142857-9.142857-9.142857z m0-356.571429H64c-5.028571 0-9.142857 4.114286-9.142857 9.142857v73.142858c0 5.028571 4.114286 9.142857 9.142857 9.142857h896c5.028571 0 9.142857-4.114286 9.142857-9.142857v-73.142858c0-5.028571-4.114286-9.142857-9.142857-9.142857z"
          p-id="3015" fill="#ffffff"></path>
</svg>